<svg xmlns="http://www.w3.org/2000/svg" xmlns:xlink="http://www.w3.org/1999/xlink" version="1.1" x="0px" y="0px" viewBox="0 0 100 125" style="enable-background:new 0 0 100 100;" xml:space="preserve"><path d="M56.7,61.1l-0.2,0.6c-0.1,0.3-0.3,0.9-0.4,1.2c-0.5,2.1-1,4.3-1.4,6.4c-0.9,4.7-1.6,9.4-1.1,14.2c0.2,1.8,1.3,3.5,3.1,3.9  c0.9,0.2,1.6,0.6,2,1.5c0.4,0.8,0.8,1.6,0.7,2.5c0,0.5-0.3,0.9-0.8,1c-2,0.3-3.9,0.4-5.9,0.2c-0.7-0.1-1.3-0.4-1.7-1  c-0.9-1.1-1.4-2.5-1.7-3.9c-0.6-2.3-0.6-4.7-0.5-7.1c0-0.2,0.1-0.5,0.2-0.7c0.6-1.8,1.3-3.6,1.8-5.5c0.7-3,0.6-6.2,0.5-9.3  c-0.1-1.3-0.4-2.6-0.6-3.8c-0.1-0.5-0.4-0.9-1-1.2c-1.2-0.5-2.2-1.5-2.8-2.8c0.3,0.1,0.6,0.3,0.9,0.5c0.4,0.2,0.7,0.5,1.1,0.7  c2.4,1.3,4,1,5.8-1.1c0.9-1.1,0.9-1.6,0-2.7c0.1-2.3-1-4.1-2.3-6c0.2-0.8,0.4-1.5,0.7-2.3c0.3-0.7,0.7-1.4,1-2.1  c0.1-0.3,0.4-0.6,0.2-1c-0.1-0.1-0.2-0.1-0.3-0.1c-1.7,1.2-3.4,2.3-5,3.4c0.5,0.9,1.1,2.1,1.6,3c-0.2,0-0.7-0.3-0.7-0.4  c-0.9-1-2.1-1.9-2.5-3.3c-0.2-0.6-0.4-1.1-0.7-1.6c-0.3-0.7-0.7-1.4-1-2.1l0,0c-0.2-0.4-0.8-0.5-1.2-0.2l0,0c-1.5,1.3-2.1,3.1-2.3,5  c-0.3,0.2-0.6,0.5-0.8,0.9c-1.5,2-2.4,4.3-2.5,6.9c0,1.7-0.6,3.3-1.8,4.6c-1.9,2.2-4.3,3.7-6.6,5.4c-2.7,1.9-4.7,4.3-5.7,7.5  c-1,3.2-0.9,6.5-0.6,9.8c0.1,1.2,0.2,2.4,0.3,3.7c-0.6-0.4-1.1-0.7-1.6-1l-0.3-0.1l0.1,0.3c0.1,0.4,0.3,0.7,0.5,0.9  c1,1.2,2.3,2,3.9,2c1.2,0,2.3,0,3.5-0.1c2.2-0.2,4.3-1.1,6.4-1.8c3.3-1.2,6.3-0.9,8.7,1.9c1.1,1.2,2.3,2.4,3.4,3.6  c0.5,0.5,0.9,1.2,1.3,1.7c0.2,0.3,0.1,0.8-0.2,0.9c-0.2,0.1-0.5,0.1-0.7-0.1c-0.4-0.2-0.8-0.5-1.1-0.8c-2-1.7-4.2-2.5-6.8-1.9  c-1.7,0.4-3.4,1-5.1,1.6c-3,1.1-6,2.2-9.3,1.8c-2-0.2-3.8-1-5.3-2.4c-1.5-1.5-2.1-3.4-2.4-5.3c-0.6-3-0.8-6,0.2-9  c0.6-1.9,1.4-3.7,2-5.6c0.9-2.9,1.8-5.9,2.6-8.8c0.8-2.6,1.6-5.2,3.2-7.5c2.4-3.6,4.7-7.1,6.8-10.9c1.3-2.4,3.4-4.2,5.3-6.1  c2.8-2.8,5.7-5.6,8.5-8.4c0.5-0.5,0.8-1,1.1-1.5c0.5-1,1-2,1.4-3c0.6-1.9,1.1-3.9,1.5-5.8c0.5-2.9,1.4-5.7,2.6-8.4  c0.1-0.2,0.2-0.4,0.4-0.7c0.1,0.3,0.1,0.5,0.1,0.6c0.2,1.7,0.8,3.3,1.6,4.9c1.1,2.1,4.2,6.1,5.7,6.9c0.6,0.3,1.2,0.3,1.6-0.2  c1.3-1.6,2.4-3.1,2.6-5.3c0.1-1.1,0-2-0.1-3c-0.1-0.6-0.3-1.8-1-2.5c0,3.2-0.1,7-2.5,9.6c-1.1-1.2-2.1-2.3-3-3.5  c-1.5-1.8-2.6-3.8-3.1-6c-0.3-1.2-0.3-2.4-0.5-3.5c0-0.2,0.1-0.5,0.3-0.7c0.3-0.4,0.6-0.8,0.9-1.2c0.6-0.8,1.3-1.3,2.2-1.6  c2.4-0.8,4.9-1,7.4-0.5c1.9,0.4,3.5,1.4,4.6,3.1c0.6,0.9,1,1.8,1.6,2.6c0.3,0.4,0.7,0.9,1.2,1.1c1.1,0.5,2.3,0.8,3.5,1.2  c0.7,0.2,1.4,0.4,2.1,0.7c0.7,0.3,1,0.7,1.1,1.5c0.1,1.4-0.4,2.5-1.2,3.6c-1.1,1.6-2.5,2.9-4.5,3.1c-1.1,0.1-2.2,0.1-3.3,0  c-0.7,0-1.4-0.1-2-0.2c-1.1,1.2-1.3,3.1-0.6,4.4c0.4,0.8,0.8,1.6,1.1,2.5c2,5.3,2.1,10.6,0.7,16c-1.1,4.2-2.6,8.2-5.4,11.6  c-2.2,2.7-4.6,5.3-6.9,7.8c-0.9,1-2,1.9-3.1,2.9c0.2-2,0.8-3.7,0.8-5.5L56.7,61.1z M60.9,64.2c-0.7,0.7-1.4,1.3-2.1,1.9  c-0.9,0.8-1.7,1.6-2.7,2.4c-0.6,0.4-0.8,1-0.8,1.6c-0.2,2.2-0.4,4.4-0.6,6.6c-0.2,2.3-0.3,4.6,0.1,6.9c0.2,1.2,0.8,2.1,2,2.4  c1.6,0.4,2.7,1.1,3.3,2.8c1,0,2.1,0.1,3.1,0c0.7,0,1.1-0.6,1.2-1.3c0.3-2.1-1.3-4.1-3.5-4.3c-1.9-0.1-2.9-1.1-2.8-3  c0.1-2.2,0.5-4.4,0.8-6.6C59.6,70.6,60.3,67.4,60.9,64.2z M42.1,84.2c0.4,0.1,0.8,0.2,1.3,0.4c0-0.8,0-1.5,0-2.2  c-0.1-2.1,0.3-4.2,1-6.2c0.6-1.7,0.8-3.5,0.6-5.3c0-0.1-0.1-0.6-0.2-0.9c-0.1,0.3-0.2,1.1-0.3,1.4c-0.3,1.8-0.7,3.6-1.5,5.3  c-0.9,2-0.8,4.1-0.9,6.2C42.1,83.4,42.1,83.7,42.1,84.2z M28.6,73.7c4.7,2.5,6.3,6.5,6.5,11.4c0.3-0.1,0.7-0.2,1-0.3  C37,80.5,32.1,73.1,28.6,73.7z M48.2,73.5c-1.7,3.6-3.2,8.1-2.9,12.2c0.3,0.2,0.6,0.5,1,0.9c0.2-2.2,0.3-4.3,0.6-6.3  c0.3-2,0.9-4,1.3-6C48.2,73.8,48.2,73.5,48.2,73.5z M37.5,73.1c0.3,1.8,0.8,3.6,1,5.4c0.2,1.8,0.2,3.6,0.3,5.5c0.3,0,0.6,0,1.1,0  c-0.2-3.7-0.3-7.5-2-10.9l-0.6-1.2L37.5,73.1z"/><text x="0" y="115" fill="#000000" font-size="5px" font-weight="bold" font-family="'Helvetica Neue', Helvetica, Arial-Unicode, Arial, Sans-serif">Created by T. Kiefer Robertson</text><text x="0" y="120" fill="#000000" font-size="5px" font-weight="bold" font-family="'Helvetica Neue', Helvetica, Arial-Unicode, Arial, Sans-serif">from the Noun Project</text></svg>