<?xml version="1.0" encoding="UTF-8"?>
<svg width="1200pt" height="1200pt" version="1.1" viewBox="0 0 1200 1200" xmlns="http://www.w3.org/2000/svg">
 <path d="m195.6 112.1c-21.488-32.215-50.566-58.652-84.676-76.984-34.109-18.332-72.203-27.992-110.93-28.133v72c41.281 0.12109 81 15.805 111.23 43.922 30.227 28.113 48.746 66.59 51.855 107.76l37.316 525c3.6445 42.684 23.125 82.461 54.617 111.51 31.488 29.047 72.707 45.258 115.55 45.449h663.96v-72h-663.96c-24.715-0.082032-48.508-9.3945-66.711-26.113-18.203-16.715-29.504-39.629-31.691-64.246l-1.8008-24.719h589.68c60.078 0.074219 118.45-19.973 165.8-56.949 47.348-36.977 80.949-88.746 95.438-147.05l78.719-349.8zm426.72 444.84-143.52-143.52 50.879-51 92.641 92.641 171.12-171 50.879 50.879z"/>
 <path d="m415.26 970c-29.574 0.003906-57.938 11.754-78.848 32.668-20.914 20.91-32.66 49.273-32.656 78.848 0 29.574 11.75 57.938 32.664 78.848 20.914 20.914 49.277 32.66 78.852 32.656 29.574 0 57.934-11.75 78.848-32.664 20.91-20.914 32.656-49.277 32.656-78.852-0.035157-29.562-11.797-57.906-32.703-78.809-20.906-20.906-49.25-32.664-78.812-32.695zm0 151.02c-10.48 0-20.527-4.1641-27.938-11.574-7.4062-7.4102-11.566-17.457-11.566-27.938 0-10.477 4.1602-20.523 11.57-27.934 7.4102-7.4102 17.457-11.57 27.938-11.574 10.477 0 20.527 4.1641 27.938 11.57 7.4062 7.4102 11.57 17.457 11.574 27.934-0.011719 10.477-4.1797 20.523-11.59 27.93-7.4062 7.4102-17.449 11.574-27.926 11.586z"/>
 <path d="m859.5 970c-29.574 0.003906-57.938 11.754-78.848 32.668-20.914 20.91-32.66 49.273-32.656 78.848 0 29.574 11.75 57.938 32.664 78.848 20.914 20.914 49.277 32.66 78.852 32.656 29.574 0 57.934-11.75 78.848-32.664 20.91-20.914 32.656-49.277 32.656-78.852-0.03125-29.562-11.793-57.91-32.699-78.812-20.906-20.906-49.254-32.66-78.816-32.691zm0 151.02c-10.48 0-20.527-4.1641-27.938-11.574-7.4062-7.4102-11.566-17.457-11.566-27.938 0-10.477 4.1602-20.523 11.57-27.934 7.4102-7.4102 17.457-11.57 27.938-11.574 10.477 0 20.527 4.1641 27.934 11.57 7.4102 7.4102 11.574 17.457 11.578 27.934-0.011719 10.48-4.1797 20.523-11.586 27.934-7.4102 7.4062-17.453 11.574-27.93 11.582z"/>
</svg>
