<svg xmlns="http://www.w3.org/2000/svg" version="1.1" viewBox="-5.0 -10.0 110.0 135.0">
 <path d="m80.82 60.012c-0.28906-0.28906-0.57812-0.58984-0.87109-0.87891-0.87891-0.89844-1.7891-1.8203-2.8203-2.6719-3.2891-2.7305-7.5703-2.6914-10.91 0.078124-0.5 0.41016-0.92188 0.83984-1.3281 1.25l-0.14844 0.14844c-1.5312 1.5312-3.0586 3.0703-4.6016 4.6094-0.14844-0.078125-0.28906-0.14844-0.44141-0.23047-1.0586-0.55078-2.0703-1.0586-2.9883-1.6484-5.0195-3.2188-9.6914-7.5703-14.262-13.32-1.75-2.1992-3.0781-4.3086-4.0703-6.4297l1.1289-1.1211c1.4297-1.4219 2.9102-2.8789 4.3516-4.3711 3.6289-3.7617 3.6289-8.5898 0-12.32-2.5508-2.6211-5.1797-5.2383-7.7305-7.7617l-2.1719-2.1484c-1.1289-1.1289-2.4297-1.9102-3.8594-2.3203-2.1484-0.62109-5.3594-0.71875-8.5 2.3281-0.76172 0.73047-1.5 1.4883-2.2383 2.2383-1.1094 1.1289-2.1602 2.1992-3.2695 3.2109-3.1484 2.8594-4.7305 6.4492-4.5781 10.391 0 3.4219 0.53906 6.5117 1.7305 10.031 2.7695 8.1719 7.1406 15.82 13.379 23.391 8.7891 10.672 19.449 18.73 31.691 23.961 4.4492 1.8984 8.6484 2.8984 12.828 3.0586 0.25 0 0.48828 0.011719 0.73047 0.011719 3.8594 0 7.0703-1.2188 9.5508-3.6211 2.0781-2.0195 4.1289-4.1211 6.1211-6.1602l0.30859-0.32031c1.4688-1.5 2.3398-3.2305 2.5781-5.1211 0.35156-2.7109-0.57031-5.1992-2.7383-7.3789-2.2812-2.3008-4.5703-4.5781-6.8711-6.8594zm4.6484 13.598c-0.10156 0.80078-0.5 1.5391-1.1992 2.2695l-0.32031 0.32031c-1.9609 2.0117-3.9883 4.0898-6.0195 6.0586-1.6602 1.6094-3.75 2.3203-6.6016 2.1992-3.5586-0.14062-7.1797-1.0117-11.059-2.6719-11.488-4.8984-21.52-12.488-29.789-22.539-5.8516-7.0898-9.9297-14.23-12.5-21.809-1.0117-2.9883-1.4688-5.6094-1.4688-8.4805v-0.10156c-0.10938-2.4609 0.89062-4.6602 2.9414-6.5312 1.2188-1.1016 2.3711-2.2695 3.4805-3.3984 0.71094-0.71875 1.4219-1.4492 2.1484-2.1484 1.0195-0.98828 1.8789-1.2695 2.6211-1.2695 0.37109 0 0.69922 0.070313 1.0117 0.16016 0.62109 0.17969 1.1797 0.51953 1.7109 1.0586l2.1719 2.1602c2.5312 2.5117 5.1484 5.1094 7.6719 7.7109 1.7188 1.7617 1.7109 3.5586-0.019531 5.3594-1.3906 1.4414-2.8516 2.8789-4.2617 4.2812l-1.4492 1.4414c-1.6289 1.6289-1.8516 2.7695-0.91016 4.8789 1.1797 2.6484 2.7812 5.2305 4.9102 7.8984 4.9219 6.1797 9.9805 10.898 15.48 14.422 1.1289 0.71875 2.2891 1.3203 3.4102 1.8906 0.48047 0.25 0.96094 0.48828 1.4414 0.75 0.82031 0.44141 2.4688 0.92969 4.1992-0.82031 1.7383-1.75 3.4688-3.4883 5.2109-5.2305l0.14844-0.14844c0.33984-0.33984 0.67187-0.67187 0.98828-0.92969 1.0508-0.87109 2.6914-1.5898 4.5312-0.070313 0.82812 0.69141 1.6211 1.4883 2.4492 2.3281 0.30078 0.30859 0.60937 0.62109 0.92187 0.92187 2.2891 2.2695 4.5703 4.5391 6.8398 6.8281 1.3711 1.3789 1.4297 2.4492 1.3281 3.2188z"/>
<text x="0.0" y="117.5" font-size="5.0" font-weight="bold" font-family="Arbeit Regular, Helvetica, Arial-Unicode, Arial, Sans-serif" fill="#000000">Created by praveen patchu</text><text x="0.0" y="122.5" font-size="5.0" font-weight="bold" font-family="Arbeit Regular, Helvetica, Arial-Unicode, Arial, Sans-serif" fill="#000000">from Noun Project</text></svg>